Coordinates
version=1
nRows=27
nColumns=33
inDegrees=yes

Units are S.I. units (second, meters, Newtons, ...)
Angles are in degrees.

endheader
time	ground_thorax_rot_x	ground_thorax_rot_y	ground_thorax_rot_z	ground_thorax_tx	ground_thorax_ty	ground_thorax_tz	clav_prot_r	clav_elev_r	scapula_abduction_r	scapula_elevation_r	scapula_upward_rot_r	scapula_winging_r	shoulder_elv_r	plane_of_elev_r	axial_rot_r	elbow_flexion_r	pro_sup_r	wrist_flex_r	wrist_dev_r	clav_prot_l	clav_elev_l	scapula_abduction_l	scapula_elevation_l	scapula_upward_rot_l	scapula_winging_l	shoulder_elv_l	plane_of_elev_l	axial_rot_l	elbow_flexion_l	pro_sup_l	wrist_flex_l	wrist_dev_l	
1.2500	2.945556	3.595830	12.305838	-0.121836	1.039645	0.032009	5.978014	12.377273	22.392814	7.378257	24.661987	-12.074514	16.023080	-75.778658	63.403763	56.712386	-29.131142	69.999997	-25.000000	10.152088	-3.495900	-14.279248	-21.428370	-41.590370	-1.351539	63.919326	-39.543558	-9.161213	67.827487	17.927229	4.070057	-24.999998	
1.2600	2.944469	3.605456	12.346083	-0.121904	1.039416	0.031944	5.967639	12.274416	22.367188	7.306835	24.616488	-12.059563	15.970127	-75.693628	63.419706	56.653249	-29.127108	69.999994	-25.000000	10.175692	-3.644131	-14.321762	-21.276046	-41.573587	-1.315243	63.929825	-39.421656	-9.176102	67.625393	17.939126	4.021676	-24.999996	
1.2700	2.936370	3.616064	12.392511	-0.121959	1.039099	0.031866	5.954798	12.182860	22.333532	7.244882	24.571591	-12.042720	15.935828	-75.617591	63.424847	56.634190	-29.126443	69.999989	-25.000000	10.195847	-3.770393	-14.357751	-21.146569	-41.559776	-1.285363	63.948384	-39.311456	-9.179687	67.489748	17.950150	3.965290	-24.999994	
1.2800	2.920763	3.637175	12.435661	-0.122006	1.038779	0.031801	5.935453	12.077976	22.280464	7.176169	24.513577	-12.017313	15.922381	-75.530004	63.412407	56.614320	-29.133719	69.999979	-25.000000	10.226436	-3.911274	-14.413893	-21.004363	-41.549801	-1.245560	63.988453	-39.196799	-9.174745	67.338625	17.966230	3.879017	-24.999989	
1.2900	2.896765	3.667140	12.479531	-0.122041	1.038424	0.031743	5.907979	11.968318	22.204148	7.107200	24.444933	-11.982780	15.939834	-75.438518	63.382493	56.615452	-29.148706	69.999963	-25.000000	10.265980	-4.053799	-14.488967	-20.865490	-41.551145	-1.199324	64.048664	-39.083839	-9.158031	67.212975	17.984797	3.759022	-24.999980	
1.3000	2.860002	3.717501	12.521985	-0.122066	1.038053	0.031704	5.862162	11.840694	22.072692	7.033573	24.346442	-11.926189	16.011167	-75.338285	63.321556	56.653675	-29.178374	69.999933	-25.000000	10.326309	-4.210531	-14.610139	-20.727087	-41.585042	-1.137419	64.144401	-38.973844	-9.127916	67.126924	18.011135	3.562869	-24.999965	
1.3100	2.814040	3.788258	12.561019	-0.122083	1.037684	0.031685	5.798113	11.699180	21.888425	6.957397	24.222136	-11.848916	16.142336	-75.231060	63.244775	56.727587	-29.218073	69.999880	-25.000000	10.410673	-4.382957	-14.785637	-20.591550	-41.660177	-1.057464	64.269862	-38.857899	-9.078553	67.079486	18.037766	3.288371	-24.999938	
1.3200	2.763775	3.876117	12.598376	-0.122094	1.037324	0.031683	5.717099	11.552781	21.658364	6.883420	24.080596	-11.754587	16.334622	-75.122594	63.166320	56.837660	-29.262760	69.999785	-25.000000	10.518477	-4.565167	-15.015340	-20.466520	-41.780766	-0.960807	64.415644	-38.731424	-9.007081	67.081958	18.056913	2.942675	-24.999888	
1.3300	2.720410	3.986433	12.629069	-0.122112	1.036996	0.031692	5.616705	11.411675	21.385012	6.816414	23.933716	-11.645875	16.620599	-75.013633	63.141433	56.979452	-29.296287	69.999615	-25.000000	10.665993	-4.769780	-15.338777	-20.355673	-41.983113	-0.834333	64.566285	-38.554667	-8.883515	67.123527	18.039490	2.505508	-24.999800	
1.3400	2.684643	4.111748	12.652691	-0.122134	1.036713	0.031710	5.502359	11.280505	21.084204	6.757485	23.789434	-11.529038	16.979564	-74.906401	63.163185	57.150342	-29.319053	69.999311	-25.000000	10.841594	-4.986807	-15.728311	-20.258347	-42.243583	-0.687319	64.716563	-38.334189	-8.712410	67.204940	17.986129	2.008972	-24.999642	
1.3500	2.661856	4.234566	12.659394	-0.122143	1.036457	0.031724	5.384423	11.177357	20.793365	6.712425	23.675184	-11.419789	17.385390	-74.806295	63.236286	57.346563	-29.325792	69.998765	-25.000000	11.025180	-5.195089	-16.137126	-20.178442	-42.524276	-0.535659	64.848153	-38.068303	-8.486318	67.330964	17.883918	1.517407	-24.999359	
1.3600	2.649108	4.329292	12.657194	-0.122120	1.036232	0.031735	5.280404	11.109458	20.556483	6.681740	23.605928	-11.333994	17.766826	-74.719480	63.317046	57.553455	-29.325324	69.997789	-25.000000	11.180451	-5.364847	-16.478538	-20.111345	-42.748806	-0.407649	64.953659	-37.797798	-8.241888	67.494292	17.751079	1.127690	-24.998852	
1.3700	2.645640	4.396648	12.635916	-0.122059	1.036030	0.031747	5.187011	11.074306	20.364435	6.664763	23.577642	-11.268162	18.141131	-74.643737	63.393232	57.803484	-29.323237	69.996038	-25.000000	11.306059	-5.501382	-16.749043	-20.050185	-42.913151	-0.304014	65.036473	-37.521553	-7.962195	67.706174	17.570412	0.854509	-24.997942	
1.3800	2.642910	4.432216	12.608069	-0.121966	1.035891	0.031770	5.114240	11.058023	20.227380	6.654616	23.574647	-11.223331	18.467556	-74.573917	63.420372	58.086838	-29.333774	69.992906	-24.999999	11.388333	-5.602832	-16.912486	-19.978340	-42.975544	-0.234301	65.109267	-37.273085	-7.688250	67.945772	17.364708	0.740652	-24.996316	
1.3900	2.642110	4.439744	12.567070	-0.121851	1.035791	0.031809	5.060342	11.059810	20.134892	6.653518	23.588442	-11.195379	18.787772	-74.502525	63.409190	58.431836	-29.358998	69.987282	-24.999999	11.440432	-5.681311	-16.997600	-19.892060	-42.954570	-0.187969	65.174676	-37.040449	-7.402846	68.219529	17.100759	0.798721	-24.993396	
1.4000	2.642436	4.421825	12.544476	-0.121749	1.035765	0.031865	5.031568	11.073608	20.091225	6.660039	23.607375	-11.184367	19.101804	-74.425996	63.378482	58.808274	-29.396463	69.977246	-24.999998	11.473878	-5.746655	-17.029711	-19.789116	-42.867068	-0.155785	65.233123	-36.824862	-7.132104	68.492369	16.782081	1.030209	-24.988185	
1.4100	2.653728	4.401380	12.532959	-0.121692	1.035786	0.031954	5.021070	11.085871	20.041219	6.681097	23.577073	-11.166401	19.569148	-74.328537	63.388378	59.294246	-29.453240	69.959163	-24.999996	11.536480	-5.847643	-17.119346	-19.661375	-42.802178	-0.099726	65.284126	-36.584641	-6.805120	68.772107	16.275546	1.481047	-24.978798	
1.4200	2.670422	4.377186	12.555370	-0.121689	1.035878	0.032066	5.029644	11.092002	19.997915	6.708883	23.509175	-11.146664	20.141128	-74.210925	63.435295	59.835770	-29.524163	69.927067	-24.999994	11.624036	-5.977146	-17.256387	-19.511578	-42.750492	-0.023239	65.331488	-36.324477	-6.460328	69.025809	15.635133	2.121053	-24.962128	
1.4300	2.692896	4.346802	12.573701	-0.121709	1.035989	0.032208	5.043247	11.092575	19.952896	6.736848	23.425978	-11.124507	20.823201	-74.072165	63.494366	60.467120	-29.614769	69.868749	-24.999989	11.730241	-6.130080	-17.424984	-19.337453	-42.695632	0.068706	65.383704	-36.026723	-6.079539	69.260025	14.867252	2.964845	-24.931861	
1.4400	2.705658	4.305934	12.600095	-0.121738	1.036144	0.032373	5.049717	11.085325	19.925341	6.747148	23.376396	-11.110898	21.493682	-73.919408	63.529439	61.113066	-29.710107	69.766587	-24.999980	11.838094	-6.284696	-17.586370	-19.146353	-42.606626	0.162224	65.458992	-35.701095	-5.720172	69.439759	14.121635	3.880040	-24.878778	
1.4500	2.714242	4.258812	12.608641	-0.121763	1.036287	0.032558	5.048642	11.063602	19.907746	6.737596	23.350018	-11.101741	22.213820	-73.760612	63.544103	61.837993	-29.833617	69.577157	-24.999965	11.951061	-6.448051	-17.746836	-18.931955	-42.484464	0.260075	65.558015	-35.331606	-5.345020	69.578186	13.321120	5.037359	-24.780526	
1.4600	2.703916	4.201719	12.621921	-0.121786	1.036442	0.032742	5.039177	11.028764	19.928971	6.697376	23.382989	-11.110167	22.869976	-73.597811	63.512463	62.555750	-29.951409	69.255777	-24.999937	12.059579	-6.602970	-17.884811	-18.703207	-42.312098	0.354233	65.690934	-34.935396	-5.012123	69.655948	12.606697	6.272861	-24.613365	
1.4700	2.689089	4.138565	12.621766	-0.121810	1.036562	0.032920	5.030097	10.986738	19.995903	6.634351	23.466048	-11.137610	23.519860	-73.447315	63.419292	63.324593	-30.050235	68.631963	-24.999888	12.172656	-6.761383	-18.018731	-18.452904	-42.099191	0.451881	65.846201	-34.492699	-4.695940	69.688759	11.933403	7.674333	-24.289268	
1.4800	2.660386	4.062795	12.640415	-0.121851	1.036667	0.033081	5.029851	10.940036	20.124934	6.550138	23.600348	-11.189597	24.110465	-73.295572	63.257174	64.077663	-30.051923	67.653859	-24.999799	12.294488	-6.923365	-18.160285	-18.187521	-41.860618	0.555761	66.018161	-34.026724	-4.424772	69.661398	11.370211	9.047457	-23.786509	
1.4900	2.636365	3.982834	12.669147	-0.121929	1.036729	0.033216	5.062535	10.877518	20.313159	6.455064	23.724361	-11.258100	24.781522	-73.152764	63.030533	64.892663	-29.902535	66.104796	-24.999640	12.447582	-7.116770	-18.358750	-17.896006	-41.631949	0.683844	66.179830	-33.513558	-4.133312	69.592025	10.750672	10.604159	-22.991333	
1.5000	2.604128	3.896523	12.717030	-0.122035	1.036768	0.033318	5.114936	10.799638	20.551902	6.343467	23.858095	-11.342321	25.473202	-72.995085	62.716982	65.696100	-29.448299	63.951887	-24.999356	12.630643	-7.335935	-18.613811	-17.587504	-41.421232	0.834603	66.339069	-32.962155	-3.847047	69.461750	10.140942	12.111797	-21.928618	
1.5100	2.570799	3.810636	12.755452	-0.122145	1.036775	0.033379	5.181484	10.698576	20.833775	6.208552	24.003072	-11.439265	26.193958	-72.817797	62.305063	66.491078	-28.737091	61.233925	-24.998847	12.841244	-7.583030	-18.916950	-17.253756	-41.214234	1.006171	66.490801	-32.355652	-3.556458	69.260438	9.519899	13.579419	-20.632579	
